<?xml version="1.0" encoding="iso-8859-1"?>
<!-- Uploaded to: SVG Repo, www.svgrepo.com, Generator: SVG Repo Mixer Tools -->
<!DOCTYPE svg PUBLIC "-//W3C//DTD SVG 1.1//EN" "http://www.w3.org/Graphics/SVG/1.1/DTD/svg11.dtd">
<svg height="800px" width="800px" version="1.1" id="Capa_1" xmlns="http://www.w3.org/2000/svg" xmlns:xlink="http://www.w3.org/1999/xlink" 
	 viewBox="0 0 181.079 181.079" xml:space="preserve">
<path style="fill:#000002;" d="M124.212,181.079H20.737c-1.381,0-2.5-1.119-2.5-2.5V39.127c0-1.381,1.119-2.5,2.5-2.5h9.224v-9.464
	c0-1.381,1.119-2.5,2.5-2.5h9.832v-9.831c0-1.381,1.119-2.5,2.5-2.5h9.832V2.5c0-1.381,1.119-2.5,2.5-2.5h103.218
	c1.381,0,2.5,1.119,2.5,2.5v142.776c0,1.381-1.119,2.5-2.5,2.5h-9.832v9.832c0,1.381-1.119,2.5-2.5,2.5h-9.832v9.832
	c0,1.381-1.119,2.5-2.5,2.5h-8.967v6.139C126.712,179.96,125.593,181.079,124.212,181.079z M23.237,176.079h98.475V41.627H23.237
	V176.079z M126.712,167.44h6.467V29.663H34.961v6.964h89.251c1.381,0,2.5,1.119,2.5,2.5V167.44z M138.179,155.108h7.332V17.332
	H47.292v7.331h88.386c1.381,0,2.5,1.119,2.5,2.5V155.108z M150.51,142.776h7.332V5H59.624v7.332h88.386c1.381,0,2.5,1.119,2.5,2.5
	V142.776z M108.478,151.873H36.472c-1.381,0-2.5-1.119-2.5-2.5s1.119-2.5,2.5-2.5h72.006c1.381,0,2.5,1.119,2.5,2.5
	S109.858,151.873,108.478,151.873z M108.478,135.339H36.472c-1.381,0-2.5-1.119-2.5-2.5s1.119-2.5,2.5-2.5h72.006
	c1.381,0,2.5,1.119,2.5,2.5S109.858,135.339,108.478,135.339z M108.478,92.669H36.472c-1.381,0-2.5-1.119-2.5-2.5s1.119-2.5,2.5-2.5
	h72.006c1.381,0,2.5,1.119,2.5,2.5S109.858,92.669,108.478,92.669z M108.478,76.134H36.472c-1.381,0-2.5-1.119-2.5-2.5
	s1.119-2.5,2.5-2.5h72.006c1.381,0,2.5,1.119,2.5,2.5S109.858,76.134,108.478,76.134z M108.478,59.6H36.472
	c-1.381,0-2.5-1.119-2.5-2.5s1.119-2.5,2.5-2.5h72.006c1.381,0,2.5,1.119,2.5,2.5S109.858,59.6,108.478,59.6z"/>
</svg>